<svg xmlns="http://www.w3.org/2000/svg" width="35.577" height="161.711" viewBox="0 0 35.577 161.711"><g id="Group_4608" data-name="Group 4608" transform="translate(35.577 0.001) rotate(90)"><g id="Group_4607" data-name="Group 4607" transform="translate(-0.002)"><path id="Path_6430" d="M157.267,4.423A9.394,9.394,0,0,0,146.86.607a31.5,31.5,0,0,0-3.953,1.331c-.548.21-1.1.426-1.644.621A1.694,1.694,0,0,0,140.2,4.521l.093.431a1.636,1.636,0,0,0,1.815,1.3l1.1-.157c.793-.113,1.59-.23,2.383-.328,4-.514,6.776,1.067,8.542,4.878,2.216,4.77,1.316,10.7-2.094,13.807a12.391,12.391,0,0,1-11.351,2.975c-5.348-1.023-9.893-3.875-13.254-6.248-3.092-2.177-6.194-4.472-9.193-6.688q-3.325-2.459-6.669-4.888a61.256,61.256,0,0,0-14.052-8A21.293,21.293,0,0,0,89.925,0a14.45,14.45,0,0,0-3.288.377,12.007,12.007,0,0,0-5.783,3.278A12.007,12.007,0,0,0,75.071.377,14.376,14.376,0,0,0,71.788,0a21.116,21.116,0,0,0-7.593,1.61,61.18,61.18,0,0,0-14.052,8c-2.236,1.615-4.457,3.254-6.678,4.893-3,2.216-6.1,4.506-9.188,6.683-3.361,2.373-7.911,5.225-13.254,6.248A12.388,12.388,0,0,1,9.672,24.463c-3.41-3.1-4.305-9.037-2.094-13.807,1.771-3.811,4.555-5.387,8.542-4.878.8.1,1.59.215,2.383.328l1.1.157a1.634,1.634,0,0,0,1.815-1.306l.093-.435a1.7,1.7,0,0,0-1.062-1.957c-.548-.2-1.1-.411-1.644-.621A31.5,31.5,0,0,0,14.848.612,9.392,9.392,0,0,0,4.442,4.428,21.855,21.855,0,0,0,0,17.834C.078,27.6,7.02,35.051,16.512,35.535A30.385,30.385,0,0,0,32.046,32.1a95.022,95.022,0,0,0,13.283-8.557l1.174-.851a79.677,79.677,0,0,1,13.034-8.234c5.441-2.515,10.333-3.029,15.108-1.59a6.767,6.767,0,0,0,5.729-.416,1.07,1.07,0,0,1,.46-.161,1.008,1.008,0,0,1,.5.161,6.768,6.768,0,0,0,5.729.416c4.77-1.443,9.668-.925,15.108,1.59a80.035,80.035,0,0,1,13.034,8.239l1.179.856A95.15,95.15,0,0,0,129.663,32.1,30.988,30.988,0,0,0,143.7,35.574c.494,0,.993-.015,1.5-.039,9.492-.484,16.434-7.931,16.512-17.7a21.848,21.848,0,0,0-4.442-13.411" data-name="Path 6430" transform="translate(0.002)"/></g></g></svg>