<svg width="125" height="125" viewBox="0 0 125 125" fill="none" xmlns="http://www.w3.org/2000/svg">
<g clip-path="url(#clip0)">
<path d="M31.372 86.5723C44.7021 86.5723 55.4443 75.6836 55.4443 62.5C55.4443 62.207 55.4443 61.9141 55.4443 61.6699C57.6904 60.498 60.3759 60.0098 62.5244 60.0098C64.624 60.0098 67.3095 60.498 69.6045 61.6699C69.5556 61.9141 69.5556 62.207 69.5556 62.5C69.5556 75.7324 80.2978 86.5723 93.6279 86.5723C106.421 86.5723 116.919 76.5137 117.651 63.9648H123.413C125.073 63.9648 125.757 63.1348 125.757 61.7676V60.8887C125.757 59.5215 125.073 58.7402 123.413 58.7402H117.407C115.601 47.2656 105.64 38.4277 93.6279 38.4277C82.1533 38.4277 72.583 46.4356 70.1904 57.1289C67.8467 55.957 64.8681 55.5176 62.5244 55.5176C60.1318 55.5176 57.1533 55.957 54.8095 57.1289C52.3681 46.4356 42.7978 38.4277 31.372 38.4277C19.3603 38.4277 9.39937 47.2656 7.59267 58.7402H1.58687C-0.0732969 58.7402 -0.756897 59.5215 -0.756897 60.8887V61.7676C-0.756897 63.1348 -0.0732969 63.9648 1.58687 63.9648H7.34857C8.08097 76.5137 18.5791 86.5723 31.372 86.5723ZM31.372 83.0566C19.9951 83.0566 10.8154 73.877 10.8154 62.5C10.8154 51.123 19.9951 41.9434 31.372 41.9434C42.6513 41.9434 51.9287 51.123 51.9287 62.5C51.9287 73.877 42.7978 83.0566 31.372 83.0566ZM93.6279 83.0566C82.2021 83.0566 73.0713 73.877 73.0713 62.5C73.0713 51.123 82.2021 41.9434 93.6279 41.9434C105.005 41.9434 114.185 51.123 114.185 62.5C114.185 73.877 105.005 83.0566 93.6279 83.0566Z" fill="black"/>
</g>
<defs>
<clipPath id="clip0">
<rect width="125" height="125" fill="white"/>
</clipPath>
</defs>
</svg>
